<?xml version="1.0" standalone="no"?><!DOCTYPE svg PUBLIC "-//W3C//DTD SVG 1.1//EN" "http://www.w3.org/Graphics/SVG/1.1/DTD/svg11.dtd"><svg t="1753395694721" class="icon" viewBox="0 0 1024 1024" version="1.1" xmlns="http://www.w3.org/2000/svg" p-id="2377" xmlns:xlink="http://www.w3.org/1999/xlink" width="200" height="200"><path d="M825.1392 796.706133v-98.6112c0-18.1248 14.779733-32.836267 33.006933-32.836266s33.006933 14.677333 33.006934 32.836266v98.6112h98.986666c18.193067 0 32.9728 14.711467 32.9728 32.8704a32.938667 32.938667 0 0 1-32.9728 32.8704h-98.986666v120.490667a32.938667 32.938667 0 0 1-33.006934 32.8704 32.938667 32.938667 0 0 1-33.006933-32.8704v-120.490667h-98.986667a32.938667 32.938667 0 0 1-32.9728-32.8704c0-18.158933 14.779733-32.8704 32.9728-32.8704h98.986667z m-164.9664 161.041067c18.2272 0 33.006933 14.677333 33.006933 32.8704a32.938667 32.938667 0 0 1-33.006933 32.836267H158.651733c-87.483733 0-158.378667-70.621867-158.378666-157.730134V158.0032c0-87.108267 70.894933-157.730133 158.378666-157.730133H743.765333c87.4496 0 158.378667 70.656 158.378667 157.730133v395.502933a32.938667 32.938667 0 0 1-33.006933 32.836267 32.938667 32.938667 0 0 1-33.006934-32.836267V158.0032a92.228267 92.228267 0 0 0-92.3648-92.023467H158.651733A92.228267 92.228267 0 0 0 66.218667 158.037333v707.720534a92.194133 92.194133 0 0 0 92.398933 92.023466H660.138667z m-395.946667-643.072h373.9648c18.193067 0 32.9728 14.711467 32.9728 32.8704a32.938667 32.938667 0 0 1-32.9728 32.8704H264.192a32.938667 32.938667 0 0 1-33.006933-32.8704c0-18.158933 14.779733-32.8704 33.006933-32.8704z m0 262.929067h373.9648c18.193067 0 32.9728 14.711467 32.9728 32.8704a32.938667 32.938667 0 0 1-32.9728 32.8704H264.192a32.938667 32.938667 0 0 1-33.006933-32.8704c0-18.158933 14.779733-32.8704 33.006933-32.8704z" fill="#8a8a8a" p-id="2378"></path></svg>