<?xml version="1.0" standalone="no"?><!DOCTYPE svg PUBLIC "-//W3C//DTD SVG 1.1//EN" "http://www.w3.org/Graphics/SVG/1.1/DTD/svg11.dtd"><svg t="1753416916405" class="icon" viewBox="0 0 1024 1024" version="1.1" xmlns="http://www.w3.org/2000/svg" p-id="6691" xmlns:xlink="http://www.w3.org/1999/xlink" width="200" height="200"><path d="M888.473458 919.014141H135.471438c-17.066667 0-30.90101-13.834343-30.901011-30.90101V135.240404c0-17.066667 13.834343-30.90101 30.901011-30.90101h753.00202c17.066667 0 30.90101 13.834343 30.90101 30.90101v752.872727c0 17.066667-13.834343 30.90101-30.90101 30.90101zM166.372448 857.212121h691.2V166.141414H166.372448V857.212121z" p-id="6692" fill="#bfbfbf"></path><path d="M221.968407 919.014141c-7.886869 0-15.773737-2.973737-21.721212-8.921212-12.153535-12.024242-12.153535-31.547475-0.129293-43.70101L645.144165 418.391919c11.507071-11.636364 29.99596-12.153535 42.278788-1.551515L908.901741 610.521212c12.8 11.248485 14.092929 30.771717 2.973737 43.571717-11.248485 12.8-30.771717 14.092929-43.571717 2.973738L668.416892 482.391919 243.948205 909.963636c-6.076768 6.076768-13.963636 9.050505-21.979798 9.050505zM364.190629 471.014141c-57.923232 0-105.115152-47.062626-105.115151-105.115151s47.062626-105.115152 105.115151-105.115152S469.305781 307.846465 469.305781 365.89899s-47.191919 105.115152-105.115152 105.115151z m0-148.298989c-23.789899 0-43.313131 19.393939-43.313131 43.313131 0 23.789899 19.393939 43.313131 43.313131 43.313131s43.313131-19.393939 43.313132-43.313131c-0.129293-23.919192-19.523232-43.313131-43.313132-43.313131z" p-id="6693" fill="#bfbfbf"></path></svg>