<?xml version="1.0" standalone="no"?><!DOCTYPE svg PUBLIC "-//W3C//DTD SVG 1.1//EN" "http://www.w3.org/Graphics/SVG/1.1/DTD/svg11.dtd"><svg t="1752138216830" class="icon" viewBox="0 0 1024 1024" version="1.1" xmlns="http://www.w3.org/2000/svg" p-id="19791" xmlns:xlink="http://www.w3.org/1999/xlink" width="200" height="200"><path d="M512 97.92c228.704 0 414.08 185.376 414.08 414.08 0 228.704-185.376 414.08-414.08 414.08H174.656a76.736 76.736 0 0 1-76.736-76.736V512C97.92 283.296 283.296 97.92 512 97.92z m14.08 460h-181.504a32 32 0 0 0-32 32v28.16a32 32 0 0 0 32 32h181.504a32 32 0 0 0 32-32v-28.16a32 32 0 0 0-32-32z m153.344-184H344.576a32 32 0 0 0-32 32v28.16a32 32 0 0 0 32 32h334.848a32 32 0 0 0 32-32v-28.16a32 32 0 0 0-32-32z" fill="#8a8a8a" p-id="19792"></path></svg>