<?xml version="1.0" standalone="no"?><!DOCTYPE svg PUBLIC "-//W3C//DTD SVG 1.1//EN" "http://www.w3.org/Graphics/SVG/1.1/DTD/svg11.dtd"><svg t="1752199501048" class="icon" viewBox="0 0 1024 1024" version="1.1" xmlns="http://www.w3.org/2000/svg" p-id="5086" xmlns:xlink="http://www.w3.org/1999/xlink" width="200" height="200"><path d="M512 640c72.661333-2.005333 132.992-27.008 180.992-75.008S765.994667 456.661333 768 384c-2.005333-72.661333-27.008-132.992-75.008-180.992S584.661333 130.005333 512 128c-72.661333 2.005333-132.992 27.008-180.992 75.008S258.005333 311.338667 256 384c2.005333 72.661333 27.008 132.992 75.008 180.992S439.338667 637.994667 512 640z m0 64c-90.666667-2.005333-166.144-33.152-226.517333-93.482667C225.152 550.101333 194.005333 474.666667 192 384c2.005333-90.666667 33.152-166.144 93.482667-226.517333C345.898667 97.152 421.333333 66.005333 512 64c90.666667 2.005333 166.144 33.152 226.474667 93.525333C798.848 217.856 829.994667 293.290667 832 384c-2.005333 90.666667-33.152 166.144-93.525333 226.517333-60.330667 60.330667-135.808 91.477333-226.474667 93.482667z m0-64c21.333333 0 32 10.666667 32 32v256c0 21.333333-10.666667 32-32 32s-32-10.666667-32-32v-256c0-21.333333 10.666667-32 32-32z m-160 160h320c21.333333 0 32 10.666667 32 32s-10.666667 32-32 32h-320c-21.333333 0-32-10.666667-32-32s10.666667-32 32-32z" fill="#000000" fill-opacity=".65" p-id="5087"></path></svg>