<?xml version="1.0" standalone="no"?><!DOCTYPE svg PUBLIC "-//W3C//DTD SVG 1.1//EN" "http://www.w3.org/Graphics/SVG/1.1/DTD/svg11.dtd"><svg t="1752983279367" class="icon" viewBox="0 0 1078 1024" version="1.1" xmlns="http://www.w3.org/2000/svg" p-id="11945" xmlns:xlink="http://www.w3.org/1999/xlink" width="210.546875" height="200"><path d="M1065.495339 230.094813 903.685589 391.931508C888.057004 407.560094 862.700972 407.560094 847.04544 391.931508 831.416855 376.302923 831.416855 350.946891 847.04544 335.291359L940.601386 241.76236 754.486491 241.76236C403.975047 241.76236 564.491397 861.516605 53.894737 861.516605L40.421818 861.516605C18.110666 861.516605 0.003063 843.409002 0.003063 821.09785 0.003063 798.759751 4.637747 780.679094 26.9489 780.679094L53.894737 780.679094C483.76167 780.679094 348.628299 160.92485 727.540655 160.92485 739.558498 160.92485 853.485495 160.92485 939.766065 160.92485L847.04544 68.204226C831.416855 52.575641 831.416855 27.219608 847.04544 11.591023 862.700972-4.064508 888.057004-4.064508 903.685589 11.591023L1062.504351 170.409785C1071.638989 177.81989 1077.836532 188.652116 1077.836532 201.343605 1077.836532 212.12194 1073.282685 221.552983 1066.384551 228.774467 1066.00731 229.178655 1065.899526 229.717571 1065.495339 230.094813ZM53.894737 241.843198 26.9489 241.843198C4.637747 241.843198 0.003063 223.735596 0.003063 201.370551 0.003063 179.032452 18.110666 160.92485 40.421818 160.92485L53.894737 160.92485C226.590604 160.92485 322.41 231.981022 387.295574 325.887262L339.278093 409.06906C281.290653 314.004148 200.480089 241.843198 53.894737 241.843198ZM521.378058 601.731793C569.934456 702.751735 629.888942 781.271903 754.486491 781.271903L940.601386 781.271903 847.04544 687.608174C831.416855 671.952643 831.416855 646.569665 847.04544 630.94108 862.700972 615.285549 888.057004 615.285549 903.685589 630.94108L1065.495339 792.912504C1065.899526 793.316692 1066.034255 793.855609 1066.411497 794.286742 1073.282685 801.48128 1077.836532 810.939269 1077.836532 821.717604 1077.836532 834.436039 1071.638989 845.295211 1062.477405 852.705316L903.685589 1011.658807C888.057004 1027.341284 862.700972 1027.341284 847.04544 1011.658807 831.416855 996.003276 831.416855 970.647243 847.04544 954.991712L939.766065 862.190251C853.485495 862.190251 739.558498 862.190251 727.540655 862.190251 593.134821 862.190251 523.479833 784.020378 470.288752 683.269895 475.54319 678.419644 480.231765 673.030477 483.896399 666.698205L521.378058 601.731793Z" p-id="11946" fill="#8a8a8a"></path></svg>