<?xml version="1.0" standalone="no"?><!DOCTYPE svg PUBLIC "-//W3C//DTD SVG 1.1//EN" "http://www.w3.org/Graphics/SVG/1.1/DTD/svg11.dtd"><svg t="1752926968753" class="icon" viewBox="0 0 1024 1024" version="1.1" xmlns="http://www.w3.org/2000/svg" p-id="4419" xmlns:xlink="http://www.w3.org/1999/xlink" width="200" height="200"><path d="M546.432 148.437333a40.533333 40.533333 0 0 0-10.368 27.050667V339.2l-11.178667 0.938667c-277.034667 25.856-410.965333 197.12-393.514666 502.613333a36.224 36.224 0 0 0 66.133333 18.432l61.909333-90.368 6.528-9.002667a215.296 215.296 0 0 1 159.488-84.309333l110.634667-5.973333v142.762666a40.533333 40.533333 0 0 0 69.632 28.202667l285.056-294.144a53.333333 53.333333 0 0 0 1.92-72.149333L607.146667 148.821333a40.533333 40.533333 0 0 0-57.173334-3.882666l-3.541333 3.498666z" p-id="4420" fill="#8a8a8a"></path></svg>