<?xml version="1.0" standalone="no"?><!DOCTYPE svg PUBLIC "-//W3C//DTD SVG 1.1//EN" "http://www.w3.org/Graphics/SVG/1.1/DTD/svg11.dtd"><svg t="1752983702433" class="icon" viewBox="0 0 1024 1024" version="1.1" xmlns="http://www.w3.org/2000/svg" p-id="5295" xmlns:xlink="http://www.w3.org/1999/xlink" width="200" height="200"><path d="M821.333333 725.333333a32 32 0 1 1 0 64H202.666667a32 32 0 1 1 0-64h618.666666z m0-245.333333a32 32 0 1 1 0 64H202.666667a32 32 0 1 1 0-64h618.666666zM196.266667 180.608a25.6 25.6 0 0 1 13.568 3.84l96.768 60.501333a25.6 25.6 0 0 1 0 43.434667L209.834667 348.842667A25.6 25.6 0 0 1 170.666667 327.125333V206.208a25.6 25.6 0 0 1 25.6-25.6zM821.333333 234.666667a32 32 0 1 1 0 64h-405.333333a32 32 0 0 1 0-64h405.333333z" fill="#8a8a8a" p-id="5296"></path></svg>